<svg width="127" height="18" 
  xmlns="http://www.w3.org/2000/svg">
  <path d="M4.623 17.021L0 .311h2.825l3.433 13.058L9.97.31h2.475l3.69 13.059L19.567.31h2.826l-4.624 16.711h-3.105L11.208 4.822l-3.48 12.2H4.624zm27.496.31c-4.716 0-8.476-3.82-8.476-8.665C23.643 3.82 27.403 0 32.12 0c4.74 0 8.476 3.82 8.476 8.666s-3.736 8.666-8.476 8.666zm20.912-.31l-3.456-6.087H46.4v6.087h-2.686V.311h6.538c2.919 0 5.254 2.387 5.254 5.37a5.27 5.27 0 0 1-3.246 4.847l3.713 6.493h-2.942zM46.4 2.89v5.586h3.852c1.425 0 2.569-1.242 2.569-2.793 0-1.576-1.144-2.793-2.569-2.793H46.4zm14.98 11.506h6.655v2.626h-9.34V.311h2.685v14.084zM77.108.31c4.507 0 7.822 3.677 7.822 8.356 0 4.655-3.315 8.355-7.822 8.355h-6.421V.311h6.421zm0 14.085c3.106 0 5.23-2.435 5.23-5.73 0-3.318-2.124-5.729-5.23-5.729h-3.736v11.46h3.736zM104.244.31h2.685v16.711h-2.685V9.788h-7.005v7.233h-2.685V.311h2.685v6.85h7.005V.312zM127 8.666c0 2.244-.817 4.273-2.148 5.777l1.728 1.814L124.688 18l-1.798-1.886a8.531 8.531 0 0 1-4.366 1.218c-4.67 0-8.476-3.82-8.476-8.666S113.854 0 118.524 0C123.217 0 127 3.82 127 8.666zm-8.476 5.992c.887 0 1.705-.191 2.452-.55l-2.99-3.127 1.892-1.742 3.13 3.27c.816-1.026 1.307-2.34 1.307-3.843 0-3.438-2.569-5.992-5.791-5.992-3.222 0-5.79 2.554-5.79 5.992 0 3.437 2.568 5.992 5.79 5.992z" fill="#000" fill-rule="nonzero"/>
</svg>
