<svg width="19" height="21" 
  xmlns="http://www.w3.org/2000/svg">
  <path d="M17.176 9.758c.048.494.048.99 0 1.484l1.244.718a.939.939 0 0 1 .437 1.057 9.67 9.67 0 0 1-2.502 4.328c-.3.3-.765.361-1.133.149l-1.241-.717a9.23 9.23 0 0 1-1.285.743v1.435a.938.938 0 0 1-.697.907 9.75 9.75 0 0 1-4.998 0 .99.99 0 0 1-.697-.907V17.52a9.23 9.23 0 0 1-1.285-.743l-1.241.717a.938.938 0 0 1-1.133-.149 9.67 9.67 0 0 1-2.502-4.328.939.939 0 0 1 .437-1.057l1.244-.718a9.306 9.306 0 0 1-.036-.742c0-.205.016-.538.036-.742L.58 9.04a.939.939 0 0 1-.437-1.057 9.67 9.67 0 0 1 2.502-4.328c.3-.3.765-.361 1.133-.149l1.241.717a9.23 9.23 0 0 1 1.285-.743V2.045c0-.426.286-.798.697-.907a9.75 9.75 0 0 1 4.998 0 .99.99 0 0 1 .697.907V3.48c.374.17.95.504 1.285.743l1.241-.717a.938.938 0 0 1 1.133.149 9.67 9.67 0 0 1 2.502 4.328.939.939 0 0 1-.437 1.057l-1.244.718zm-2.057 2.461c.298-1.614.298-1.825 0-3.438l1.711-.988c-.257-.694-.849-1.718-1.322-2.287l-1.712.99c-1.249-1.07-1.432-1.176-2.975-1.72V2.798A9.458 9.458 0 0 0 9.5 2.687c-.367 0-.959.05-1.32.112v1.976c-1.544.545-1.727.65-2.976 1.72l-1.712-.989A7.82 7.82 0 0 0 2.17 7.793l1.711.988c-.298 1.614-.298 1.825 0 3.438l-1.711.988c.257.694.849 1.718 1.322 2.287l1.712-.989c1.249 1.07 1.432 1.175 2.975 1.72V18.2c.362.062.954.112 1.321.112s.959-.05 1.32-.112v-1.976c1.544-.545 1.727-.65 2.976-1.72l1.712.989c.473-.569 1.065-1.593 1.322-2.287l-1.711-.988zM9.5 6.75a3.754 3.754 0 0 1 3.75 3.75 3.754 3.754 0 0 1-3.75 3.75 3.754 3.754 0 0 1-3.75-3.75A3.754 3.754 0 0 1 9.5 6.75zm0 5.625a1.877 1.877 0 0 0 1.875-1.875A1.877 1.877 0 0 0 9.5 8.625 1.877 1.877 0 0 0 7.625 10.5c0 1.034.841 1.875 1.875 1.875z" fill="#000" fill-rule="nonzero"/>
</svg>
